<svg id="banner-link.svg" xmlns="http://www.w3.org/2000/svg" width="52" height="52" viewBox="0 0 52 52">
  <defs>
    <style>
      .cls-1 {
        fill: #fff;
        fill-rule: evenodd;
      }

      .cls-2 {
        fill: none;
        stroke: #fff;
        stroke-width: 2px;
      }
    </style>
  </defs>
  <path id="ARROW_RIGHT_copy" data-name="ARROW / RIGHT copy" class="cls-1" d="M245.241,681.505L240,686.637l-5.308-5.2h0a1.007,1.007,0,0,0-.694-0.275,0.99,0.99,0,0,0-1,.98,0.968,0.968,0,0,0,.28.68h0l6,5.877h0a1.006,1.006,0,0,0,.72.3h0a1.006,1.006,0,0,0,.72-0.3h0l6-5.877,0,0a0.965,0.965,0,0,0,.278-0.677,0.99,0.99,0,0,0-1-.98A1.009,1.009,0,0,0,245.241,681.505ZM241,673.979v12.408a1,1,0,0,1-2,0V673.979A1,1,0,0,1,241,673.979Z" transform="translate(-214 -655)"/>
  <circle class="cls-2" cx="26" cy="26" r="25"/>
</svg>
