<svg xmlns="http://www.w3.org/2000/svg" width="12" height="11" viewBox="0 0 12 11">
  <defs>
    <style>
      .cls-1 {
        fill: #fff;
        fill-rule: evenodd;
      }
    </style>
  </defs>
  <path id="featured-work.svg" class="cls-1" d="M522.379,2172.38l3.849,4.12-3.9,4.17h0a0.8,0.8,0,0,0-.206.54,0.762,0.762,0,0,0,.735.79,0.694,0.694,0,0,0,.51-0.22h0l4.408-4.71h0a0.836,0.836,0,0,0,.225-0.57h0a0.8,0.8,0,0,0-.225-0.57h0l-4.408-4.71h0a0.691,0.691,0,0,0-.508-0.22,0.762,0.762,0,0,0-.735.79A0.8,0.8,0,0,0,522.379,2172.38Zm-5.644,3.33h9.306a0.792,0.792,0,0,1,0,1.58h-9.306A0.792,0.792,0,0,1,516.735,2175.71Z" transform="translate(-516 -2171)"/>
</svg>
