<svg xmlns="http://www.w3.org/2000/svg" width="16" height="14" viewBox="0 0 16 14">
  <defs>
    <style>
      .cls-1 {
        fill: #e8432e;
        fill-rule: evenodd;
      }
    </style>
  </defs>
  <path id="link-arrow.svg" class="cls-1" d="M224.505,1276.76l5.132,5.24-5.2,5.31h0a1,1,0,0,0,.705,1.69,0.983,0.983,0,0,0,.68-0.28h0l5.878-6h0a1.008,1.008,0,0,0,.3-0.72h0a0.991,0.991,0,0,0-.3-0.72h0l-5.878-6h0a0.975,0.975,0,0,0-.677-0.28,0.992,0.992,0,0,0-.98,1A1.01,1.01,0,0,0,224.505,1276.76ZM216.98,1281h12.408a1,1,0,0,1,0,2H216.98A1,1,0,0,1,216.98,1281Z" transform="translate(-216 -1275)"/>
</svg>
