<svg id="play.svg" xmlns="http://www.w3.org/2000/svg" width="96" height="96" viewBox="0 0 96 96">
  <defs>
    <style>
      .cls-1 {
        fill: none;
        stroke: #fff;
        stroke-width: 3px;
      }

      .cls-2 {
        fill: #fff;
        fill-rule: evenodd;
      }
    </style>
  </defs>
  <circle class="cls-1" cx="48" cy="48" r="46.5"/>
  <path id="PLAY" class="cls-2" d="M818,2435a2.99,2.99,0,0,1-1.474,2.58h0l-21.965,12.98c-0.007.01-.015,0.01-0.023,0.02h-0.012A2.938,2.938,0,0,1,793,2451a3,3,0,0,1-3-3h0v-26h0a3,3,0,0,1,3-3,2.938,2.938,0,0,1,1.526.42h0.012c0.008,0.01.016,0.01,0.023,0.02l21.965,12.98h0A2.99,2.99,0,0,1,818,2435Z" transform="translate(-752.5 -2386.5)"/>
</svg>
